<svg width="1162" height="222" xmlns="http://www.w3.org/2000/svg"><path d="M0 111V0h246v222H0V111zm647 22c0 18 2 36 2 57-12 1-25 1-37 0 .667-19.333 1-38.333 1-57 0-32 0-66-1-77V36c0-1 37-1 38 0 0 1 0 8-1 17-1 8-1 47-1 53 26-23 74-69 82-74 6 1 11 4 17 8s8 7 9 11c-16 12.667-42.333 34.667-79 66 54.667 30.667 85.667 48.333 93 53 36-45 84-117 90-131 2-3 12-4 13-4s63.598 97.74 72 110c8.402 12.26 25 33 26 34-6 7-27 12-35 14-6-11-19-35-29-47-29-1-49-1-82 0-3 3-25 34-29 46-5 0-14-3-18-4-4 4-8 7-17 12-24-14-85-53-114-67zm246-12-26-38-27 39 53-1zM421.299 35.056l.813.017.815.02c4.065.114 7.982.362 9.073.907 0 46-1.189 82.266 5 100 7.204 20.643 24 30 52 30 18.01 0 44.147-2.651 55-23 8-15 5.62-21.538 5-47-.178-7.312-.428-15.568-.729-23.6l-.055-1.458c-.604-15.76-1.399-30.38-2.216-34.942 1.587-.466 6.967-.73 12.595-.868l.914-.021c3.356-.074 6.73-.106 9.38-.11h2.519c6.414.006 11.762.084 13.592.999 0 32.4-.838 51.657-1.54 68.982l-.052 1.28a3220.94 3220.94 0 0 0-.127 3.176l-.05 1.263-.095 2.52-.047 1.259L583 117c-.9 26.201-8.905 42.653-18.81 52.18-18.207 17.513-40.522 23.82-78.342 23.82-49.526 0-75.64-23.82-83.744-52.402C398.074 126.385 394 81 394 35.794c2.717-.72 13.224-.787 18.527-.793h2.862c1.64.002 3.745.012 5.91.055zm576 0 .813.017.815.02c4.065.114 7.982.362 9.073.907 0 46-1.189 82.266 5 100 7.204 20.643 24 30 52 30 18.01 0 44.147-2.651 55-23 8-15 5.62-21.538 5-47a1848.52 1848.52 0 0 0-.729-23.6l-.055-1.458c-.604-15.76-1.399-30.38-2.216-34.942 1.587-.466 6.967-.73 12.595-.868l.914-.021c3.356-.074 6.73-.106 9.38-.11h2.519c6.414.006 11.762.084 13.592.999 0 32.4-.838 51.657-1.54 68.982l-.052 1.28c-.043 1.064-.086 2.122-.127 3.176l-.05 1.263-.095 2.52-.047 1.259L1159 117c-.9 26.201-8.905 42.653-18.81 52.18-18.207 17.513-40.522 23.82-78.342 23.82-49.526 0-75.64-23.82-83.744-52.402C974.074 126.385 970 81 970 35.794c2.717-.72 13.224-.787 18.527-.793h2.862c1.64.002 3.745.012 5.91.055zM289.577 34.02l.835.008.839.01.42.006.836.013c5.285.092 10.267.33 11.493.942.415.208-.09 10.473-.52 21.542l-.04 1.056-.06 1.59-.02.53-.038 1.06-.037 1.058-.036 1.054-.034 1.048c-.122 3.83-.207 7.508-.215 10.639V166h73c1.333 4.667 2 8.333 2 11s-.667 7.667-2 15l-108-3c.502-25.34.669-51.007.5-77a2870.4 2870.4 0 0 0-1.5-76c6-1.333 11.333-2 16-2h2.16c1.388.003 2.888.007 4.417.02z"/><path d="M120 210c-55 0-84-30-93-66-2.983-11.934-5.983-55.934-9-132 8.667-.667 14.667-1 18-1s8.667.333 16 1c-.582 70.442 1.418 113.11 6 128 8 26 26 44 65 44 20 0 46.265-2.828 63-26 13-18 11.688-36.93 11-69-.599-27.908-1.604-67.16-3-76 3-1 11.016-2 19-2 5.333 0 10.667.333 16 1-.798 51.006-1.465 85.34-2 103-1 33-9 53-20 65-20.219 22.057-45 30-87 30zm34-70c-16-11 5-38 20-26s-4 37-20 26zm0-49c-16-11 5-38 20-26s-4 37-20 26zm0-50c-16-11 5-38 20-26s-4 37-20 26zm982.156 96.612c-8.065-5.545 2.52-19.154 10.08-13.106 7.562 6.05-2.015 18.65-10.08 13.106zm0-37c-8.065-5.545 2.52-19.154 10.08-13.106 7.562 6.05-2.015 18.65-10.08 13.106zm0-35c-8.065-5.545 2.52-19.154 10.08-13.106 7.562 6.05-2.015 18.65-10.08 13.106z" fill="#fff"/></svg>